<svg width="34" height="34" viewBox="0 0 34 34" fill="none" xmlns="http://www.w3.org/2000/svg">
<path d="M0 16.6983C0 12.278 1.75595 8.03878 4.88155 4.91317C8.00716 1.78756 12.2464 0.0316162 16.6667 0.0316162C18.8554 0.0316162 21.0226 0.462712 23.0447 1.30029C25.0668 2.13787 26.9041 3.36553 28.4518 4.91317C29.9994 6.46081 31.2271 8.29813 32.0647 10.3202C32.9022 12.3423 33.3333 14.5096 33.3333 16.6983C33.3333 21.1186 31.5774 25.3578 28.4518 28.4834C25.3262 31.609 21.0869 33.3649 16.6667 33.3649C14.478 33.3649 12.3107 32.9339 10.2886 32.0963C8.26652 31.2587 6.4292 30.031 4.88155 28.4834C1.75595 25.3578 0 21.1186 0 16.6983ZM26.6667 15.0316H13.3333L19.1667 9.19828L16.8 6.83162L6.93333 16.6983L16.8 26.5649L19.1667 24.1983L13.3333 18.3649H26.6667V15.0316Z" fill="#FF6700"/>
</svg>
